# xmcd
#
# Track frame offsets: 
#        150
#        13267
#        24751
#        36915
#        49840
#        61084
#        72758
#        83755
#        96933
#        109565
#        122046
#        135015
#        146707
#        158709
#        170659
#        182790
#        195381
#        208145
#        222558
#        234352
#        246218
#        258535
#        271408
#        283753
#
# Disc length: 3952 seconds
#
# Revision: 0
# Processed by: cddbd v1.5.2PL0 Copyright (c) Steve Scherf et al.
# Submitted via: ExactAudioCopyFreeDBPlugin 1.0
#
DISCID=590f6e18
DTITLE=Various Artist - Mitchell's Christian Singers Vol. 4 - Wright Brothers
DTITLE=Gospel Singers
DYEAR=1996
DGENRE=Gospel
TTITLE0=Mitchell's Christian Singers - Don't Drive Them Away
TTITLE1=Mitchell's Christian Singers - Jesus Is Everything to Me
TTITLE2=Mitchell's Christian Singers - Famine in the Land
TTITLE3=Mitchell's Christian Singers - Walk with Me
TTITLE4=Mitchell's Christian Singers - Go Where I Send Thee
TTITLE5=Mitchell's Christian Singers - Don't You Want That Stone?
TTITLE6=Mitchell's Christian Singers - Kneel Down and Pray
TTITLE7=The Wright Brothers Gospel Singers - Shady Green Pastures
TTITLE8=The Wright Brothers Gospel Singers - Walk Around
TTITLE9=The Wright Brothers Gospel Singers - Mother Is Your Friend
TTITLE10=The Wright Brothers Gospel Singers - Jordan's Stormy Banks
TTITLE11=The Wright Brothers Gospel Singers - Some Day
TTITLE12=The Wright Brothers Gospel Singers - Gospel Train [take 1]
TTITLE13=The Wright Brothers Gospel Singers - Gospel Train [take 2]
TTITLE14=The Wright Brothers Gospel Singers - Cool Down Here
TTITLE15=The Wright Brothers Gospel Singers - He's My Rock
TTITLE16=The Wright Brothers Gospel Singers - Wake Me, Shake Me, Don't
TTITLE16=Let Me Sleep Too Long
TTITLE17=The Wright Brothers Gospel Singers - After a While
TTITLE18=The Wright Brothers Gospel Singers - I Go Where You Want Me t
TTITLE18=o Go
TTITLE19=The Wright Brothers Gospel Singers - Shadows of the Cross
TTITLE20=The Wright Brothers Gospel Singers - Gospel Train [T-1277]
TTITLE21=The Wright Brothers Gospel Singers - Heavenly Father's Childr
TTITLE21=en
TTITLE22=The Wright Brothers Gospel Singers - Blessed Quietness
TTITLE23=The Wright Brothers Gospel Singers - Jonah
EXTD=
EXTT0=
EXTT1=
EXTT2=
EXTT3=
EXTT4=
EXTT5=
EXTT6=
EXTT7=
EXTT8=
EXTT9=
EXTT10=
EXTT11=
EXTT12=
EXTT13=
EXTT14=
EXTT15=
EXTT16=
EXTT17=
EXTT18=
EXTT19=
EXTT20=
EXTT21=
EXTT22=
EXTT23=
PLAYORDER=
